<svg id="visual" viewBox="0 0 1920 1080" width="1920" height="1080" xmlns="http://www.w3.org/2000/svg" xmlns:xlink="http://www.w3.org/1999/xlink" version="1.1"><rect x="0" y="0" width="1920" height="1080" fill="#1a1a1d"></rect><path d="M0 919L13.8 922.3C27.7 925.7 55.3 932.3 83.2 935.8C111 939.3 139 939.7 166.8 941.3C194.7 943 222.3 946 250.2 947.2C278 948.3 306 947.7 333.8 945.7C361.7 943.7 389.3 940.3 417.2 934.5C445 928.7 473 920.3 500.8 917C528.7 913.7 556.3 915.3 584.2 918.7C612 922 640 927 667.8 929.5C695.7 932 723.3 932 751.2 929C779 926 807 920 834.8 920.5C862.7 921 890.3 928 918.2 931.7C946 935.3 974 935.7 1001.8 932.5C1029.7 929.3 1057.3 922.7 1085.2 921.8C1113 921 1141 926 1168.8 931.2C1196.7 936.3 1224.3 941.7 1252.2 944.5C1280 947.3 1308 947.7 1335.8 944C1363.7 940.3 1391.3 932.7 1419.2 933.3C1447 934 1475 943 1502.8 945C1530.7 947 1558.3 942 1586.2 940C1614 938 1642 939 1669.8 935.7C1697.7 932.3 1725.3 924.7 1753.2 920.5C1781 916.3 1809 915.7 1836.8 917.8C1864.7 920 1892.3 925 1906.2 927.5L1920 930L1920 1081L1906.2 1081C1892.3 1081 1864.7 1081 1836.8 1081C1809 1081 1781 1081 1753.2 1081C1725.3 1081 1697.7 1081 1669.8 1081C1642 1081 1614 1081 1586.2 1081C1558.3 1081 1530.7 1081 1502.8 1081C1475 1081 1447 1081 1419.2 1081C1391.3 1081 1363.7 1081 1335.8 1081C1308 1081 1280 1081 1252.2 1081C1224.3 1081 1196.7 1081 1168.8 1081C1141 1081 1113 1081 1085.2 1081C1057.3 1081 1029.7 1081 1001.8 1081C974 1081 946 1081 918.2 1081C890.3 1081 862.7 1081 834.8 1081C807 1081 779 1081 751.2 1081C723.3 1081 695.7 1081 667.8 1081C640 1081 612 1081 584.2 1081C556.3 1081 528.7 1081 500.8 1081C473 1081 445 1081 417.2 1081C389.3 1081 361.7 1081 333.8 1081C306 1081 278 1081 250.2 1081C222.3 1081 194.7 1081 166.8 1081C139 1081 111 1081 83.2 1081C55.3 1081 27.7 1081 13.8 1081L0 1081Z" fill="#c3073f"></path><path d="M0 964L13.8 962.7C27.7 961.3 55.3 958.7 83.2 957.8C111 957 139 958 166.8 960.3C194.7 962.7 222.3 966.3 250.2 964.7C278 963 306 956 333.8 957.3C361.7 958.7 389.3 968.3 417.2 969.2C445 970 473 962 500.8 962.8C528.7 963.7 556.3 973.3 584.2 973C612 972.7 640 962.3 667.8 962.3C695.7 962.3 723.3 972.7 751.2 977.8C779 983 807 983 834.8 980.5C862.7 978 890.3 973 918.2 968.2C946 963.3 974 958.7 1001.8 959.5C1029.7 960.3 1057.3 966.7 1085.2 971C1113 975.3 1141 977.7 1168.8 974.5C1196.7 971.3 1224.3 962.7 1252.2 962.5C1280 962.3 1308 970.7 1335.8 970.3C1363.7 970 1391.3 961 1419.2 960.5C1447 960 1475 968 1502.8 967.5C1530.7 967 1558.3 958 1586.2 953.5C1614 949 1642 949 1669.8 952C1697.7 955 1725.3 961 1753.2 962.5C1781 964 1809 961 1836.8 961.2C1864.7 961.3 1892.3 964.7 1906.2 966.3L1920 968L1920 1081L1906.2 1081C1892.3 1081 1864.7 1081 1836.8 1081C1809 1081 1781 1081 1753.2 1081C1725.3 1081 1697.7 1081 1669.8 1081C1642 1081 1614 1081 1586.2 1081C1558.3 1081 1530.7 1081 1502.8 1081C1475 1081 1447 1081 1419.2 1081C1391.3 1081 1363.7 1081 1335.8 1081C1308 1081 1280 1081 1252.2 1081C1224.3 1081 1196.7 1081 1168.8 1081C1141 1081 1113 1081 1085.2 1081C1057.3 1081 1029.7 1081 1001.8 1081C974 1081 946 1081 918.2 1081C890.3 1081 862.7 1081 834.8 1081C807 1081 779 1081 751.2 1081C723.3 1081 695.7 1081 667.8 1081C640 1081 612 1081 584.2 1081C556.3 1081 528.7 1081 500.8 1081C473 1081 445 1081 417.2 1081C389.3 1081 361.7 1081 333.8 1081C306 1081 278 1081 250.2 1081C222.3 1081 194.7 1081 166.8 1081C139 1081 111 1081 83.2 1081C55.3 1081 27.7 1081 13.8 1081L0 1081Z" fill="#a6183c"></path><path d="M0 1004L13.8 1005.2C27.7 1006.3 55.3 1008.7 83.2 1008.7C111 1008.7 139 1006.3 166.8 1004.5C194.7 1002.7 222.3 1001.3 250.2 998.8C278 996.3 306 992.7 333.8 990.3C361.7 988 389.3 987 417.2 990.3C445 993.7 473 1001.3 500.8 1001.5C528.7 1001.7 556.3 994.3 584.2 994.5C612 994.7 640 1002.3 667.8 1003.7C695.7 1005 723.3 1000 751.2 999C779 998 807 1001 834.8 1004.3C862.7 1007.7 890.3 1011.3 918.2 1010.5C946 1009.7 974 1004.3 1001.8 1001.5C1029.7 998.7 1057.3 998.3 1085.2 996.7C1113 995 1141 992 1168.8 990.8C1196.7 989.7 1224.3 990.3 1252.2 992.7C1280 995 1308 999 1335.8 999.7C1363.7 1000.3 1391.3 997.7 1419.2 996.7C1447 995.7 1475 996.3 1502.8 999.3C1530.7 1002.3 1558.3 1007.7 1586.2 1008.2C1614 1008.7 1642 1004.3 1669.8 1004.2C1697.7 1004 1725.3 1008 1753.2 1009.7C1781 1011.3 1809 1010.7 1836.8 1007.2C1864.7 1003.7 1892.3 997.3 1906.2 994.2L1920 991L1920 1081L1906.2 1081C1892.3 1081 1864.7 1081 1836.8 1081C1809 1081 1781 1081 1753.2 1081C1725.3 1081 1697.7 1081 1669.8 1081C1642 1081 1614 1081 1586.2 1081C1558.3 1081 1530.7 1081 1502.8 1081C1475 1081 1447 1081 1419.2 1081C1391.3 1081 1363.7 1081 1335.8 1081C1308 1081 1280 1081 1252.2 1081C1224.3 1081 1196.7 1081 1168.8 1081C1141 1081 1113 1081 1085.2 1081C1057.3 1081 1029.7 1081 1001.8 1081C974 1081 946 1081 918.2 1081C890.3 1081 862.7 1081 834.8 1081C807 1081 779 1081 751.2 1081C723.3 1081 695.7 1081 667.8 1081C640 1081 612 1081 584.2 1081C556.3 1081 528.7 1081 500.8 1081C473 1081 445 1081 417.2 1081C389.3 1081 361.7 1081 333.8 1081C306 1081 278 1081 250.2 1081C222.3 1081 194.7 1081 166.8 1081C139 1081 111 1081 83.2 1081C55.3 1081 27.7 1081 13.8 1081L0 1081Z" fill="#8a1f38"></path><path d="M0 1047L13.8 1045.3C27.7 1043.7 55.3 1040.3 83.2 1039.3C111 1038.3 139 1039.7 166.8 1038.8C194.7 1038 222.3 1035 250.2 1036C278 1037 306 1042 333.8 1040.8C361.7 1039.7 389.3 1032.3 417.2 1028.8C445 1025.3 473 1025.7 500.8 1028.2C528.7 1030.7 556.3 1035.3 584.2 1036.5C612 1037.7 640 1035.3 667.8 1035C695.7 1034.7 723.3 1036.3 751.2 1036.8C779 1037.3 807 1036.7 834.8 1036.5C862.7 1036.3 890.3 1036.7 918.2 1034.8C946 1033 974 1029 1001.8 1027.3C1029.7 1025.7 1057.3 1026.3 1085.2 1026.5C1113 1026.7 1141 1026.3 1168.8 1029.3C1196.7 1032.3 1224.3 1038.7 1252.2 1041.2C1280 1043.7 1308 1042.3 1335.8 1042.7C1363.7 1043 1391.3 1045 1419.2 1042.7C1447 1040.3 1475 1033.7 1502.8 1029.7C1530.7 1025.7 1558.3 1024.3 1586.2 1024.2C1614 1024 1642 1025 1669.8 1027.8C1697.7 1030.7 1725.3 1035.3 1753.2 1037.3C1781 1039.3 1809 1038.7 1836.8 1036.2C1864.7 1033.7 1892.3 1029.3 1906.2 1027.2L1920 1025L1920 1081L1906.2 1081C1892.3 1081 1864.7 1081 1836.8 1081C1809 1081 1781 1081 1753.2 1081C1725.3 1081 1697.7 1081 1669.8 1081C1642 1081 1614 1081 1586.2 1081C1558.3 1081 1530.7 1081 1502.8 1081C1475 1081 1447 1081 1419.2 1081C1391.3 1081 1363.7 1081 1335.8 1081C1308 1081 1280 1081 1252.2 1081C1224.3 1081 1196.7 1081 1168.8 1081C1141 1081 1113 1081 1085.2 1081C1057.3 1081 1029.7 1081 1001.8 1081C974 1081 946 1081 918.2 1081C890.3 1081 862.7 1081 834.8 1081C807 1081 779 1081 751.2 1081C723.3 1081 695.7 1081 667.8 1081C640 1081 612 1081 584.2 1081C556.3 1081 528.7 1081 500.8 1081C473 1081 445 1081 417.2 1081C389.3 1081 361.7 1081 333.8 1081C306 1081 278 1081 250.2 1081C222.3 1081 194.7 1081 166.8 1081C139 1081 111 1081 83.2 1081C55.3 1081 27.7 1081 13.8 1081L0 1081Z" fill="#6f2232"></path></svg>