<svg id="visual" viewBox="0 0 1920 1080" preserveAspectRatio="none" width="1920" height="1080" xmlns="http://www.w3.org/2000/svg" xmlns:xlink="http://www.w3.org/1999/xlink" version="1.1"><rect x="0" y="0" width="1920" height="1080" fill="#001220"></rect><path d="M0 78L13.8 78.3C27.7 78.7 55.3 79.3 83.2 77.5C111 75.7 139 71.3 166.8 71.5C194.7 71.7 222.3 76.3 250.2 77C278 77.7 306 74.3 333.8 73C361.7 71.7 389.3 72.3 417.2 73.3C445 74.3 473 75.7 500.8 74.7C528.7 73.7 556.3 70.3 584.2 68.5C612 66.7 640 66.3 667.8 68C695.7 69.7 723.3 73.3 751.2 72.8C779 72.3 807 67.7 834.8 65.3C862.7 63 890.3 63 918.2 66.3C946 69.7 974 76.3 1001.8 76.7C1029.7 77 1057.3 71 1085.2 68.3C1113 65.7 1141 66.3 1168.8 66C1196.7 65.7 1224.3 64.3 1252.2 65.3C1280 66.3 1308 69.7 1335.8 70.7C1363.7 71.7 1391.3 70.3 1419.2 71.3C1447 72.3 1475 75.7 1502.8 77.5C1530.7 79.3 1558.3 79.7 1586.2 79.5C1614 79.3 1642 78.7 1669.8 77.3C1697.7 76 1725.3 74 1753.2 74.3C1781 74.7 1809 77.3 1836.8 76.8C1864.7 76.3 1892.3 72.7 1906.2 70.8L1920 69L1920 0L1906.2 0C1892.3 0 1864.7 0 1836.8 0C1809 0 1781 0 1753.2 0C1725.3 0 1697.7 0 1669.8 0C1642 0 1614 0 1586.2 0C1558.3 0 1530.7 0 1502.8 0C1475 0 1447 0 1419.2 0C1391.3 0 1363.7 0 1335.8 0C1308 0 1280 0 1252.2 0C1224.3 0 1196.7 0 1168.8 0C1141 0 1113 0 1085.2 0C1057.3 0 1029.7 0 1001.8 0C974 0 946 0 918.2 0C890.3 0 862.7 0 834.8 0C807 0 779 0 751.2 0C723.3 0 695.7 0 667.8 0C640 0 612 0 584.2 0C556.3 0 528.7 0 500.8 0C473 0 445 0 417.2 0C389.3 0 361.7 0 333.8 0C306 0 278 0 250.2 0C222.3 0 194.7 0 166.8 0C139 0 111 0 83.2 0C55.3 0 27.7 0 13.8 0L0 0Z" fill="#c3073f"></path><path d="M0 54L13.8 54.7C27.7 55.3 55.3 56.7 83.2 58.2C111 59.7 139 61.3 166.8 60.7C194.7 60 222.3 57 250.2 55.8C278 54.7 306 55.3 333.8 56.8C361.7 58.3 389.3 60.7 417.2 61.2C445 61.7 473 60.3 500.8 58C528.7 55.7 556.3 52.3 584.2 53.2C612 54 640 59 667.8 60.5C695.7 62 723.3 60 751.2 59.2C779 58.3 807 58.7 834.8 58.8C862.7 59 890.3 59 918.2 59.8C946 60.7 974 62.3 1001.8 61.3C1029.7 60.3 1057.3 56.7 1085.2 55.7C1113 54.7 1141 56.3 1168.8 55.8C1196.7 55.3 1224.3 52.7 1252.2 51C1280 49.3 1308 48.7 1335.8 50.5C1363.7 52.3 1391.3 56.7 1419.2 57.3C1447 58 1475 55 1502.8 55.2C1530.7 55.3 1558.3 58.7 1586.2 58.3C1614 58 1642 54 1669.8 51.5C1697.7 49 1725.3 48 1753.2 50C1781 52 1809 57 1836.8 57.3C1864.7 57.7 1892.3 53.3 1906.2 51.2L1920 49L1920 0L1906.2 0C1892.3 0 1864.7 0 1836.8 0C1809 0 1781 0 1753.2 0C1725.3 0 1697.7 0 1669.8 0C1642 0 1614 0 1586.2 0C1558.3 0 1530.7 0 1502.8 0C1475 0 1447 0 1419.2 0C1391.3 0 1363.7 0 1335.8 0C1308 0 1280 0 1252.2 0C1224.3 0 1196.7 0 1168.8 0C1141 0 1113 0 1085.2 0C1057.3 0 1029.7 0 1001.8 0C974 0 946 0 918.2 0C890.3 0 862.7 0 834.8 0C807 0 779 0 751.2 0C723.3 0 695.7 0 667.8 0C640 0 612 0 584.2 0C556.3 0 528.7 0 500.8 0C473 0 445 0 417.2 0C389.3 0 361.7 0 333.8 0C306 0 278 0 250.2 0C222.3 0 194.7 0 166.8 0C139 0 111 0 83.2 0C55.3 0 27.7 0 13.8 0L0 0Z" fill="#a6183c"></path><path d="M0 33L13.8 32.5C27.7 32 55.3 31 83.2 32.7C111 34.3 139 38.7 166.8 39.3C194.7 40 222.3 37 250.2 35C278 33 306 32 333.8 33.2C361.7 34.3 389.3 37.7 417.2 40C445 42.3 473 43.7 500.8 42C528.7 40.3 556.3 35.7 584.2 33.8C612 32 640 33 667.8 35.5C695.7 38 723.3 42 751.2 43.3C779 44.7 807 43.3 834.8 42.5C862.7 41.7 890.3 41.3 918.2 40.3C946 39.3 974 37.7 1001.8 37C1029.7 36.3 1057.3 36.7 1085.2 37.3C1113 38 1141 39 1168.8 39.8C1196.7 40.7 1224.3 41.3 1252.2 42.2C1280 43 1308 44 1335.8 44.2C1363.7 44.3 1391.3 43.7 1419.2 43C1447 42.3 1475 41.7 1502.8 39.7C1530.7 37.7 1558.3 34.3 1586.2 35C1614 35.7 1642 40.3 1669.8 40.2C1697.7 40 1725.3 35 1753.2 33.2C1781 31.3 1809 32.7 1836.8 34.3C1864.7 36 1892.3 38 1906.2 39L1920 40L1920 0L1906.2 0C1892.3 0 1864.7 0 1836.8 0C1809 0 1781 0 1753.2 0C1725.3 0 1697.7 0 1669.8 0C1642 0 1614 0 1586.2 0C1558.3 0 1530.7 0 1502.8 0C1475 0 1447 0 1419.2 0C1391.3 0 1363.7 0 1335.8 0C1308 0 1280 0 1252.2 0C1224.3 0 1196.7 0 1168.8 0C1141 0 1113 0 1085.2 0C1057.3 0 1029.7 0 1001.8 0C974 0 946 0 918.2 0C890.3 0 862.7 0 834.8 0C807 0 779 0 751.2 0C723.3 0 695.7 0 667.8 0C640 0 612 0 584.2 0C556.3 0 528.7 0 500.8 0C473 0 445 0 417.2 0C389.3 0 361.7 0 333.8 0C306 0 278 0 250.2 0C222.3 0 194.7 0 166.8 0C139 0 111 0 83.2 0C55.3 0 27.7 0 13.8 0L0 0Z" fill="#8a1f38"></path><path d="M0 16L13.8 17.5C27.7 19 55.3 22 83.2 22.2C111 22.3 139 19.7 166.8 18C194.7 16.3 222.3 15.7 250.2 16.8C278 18 306 21 333.8 22.8C361.7 24.7 389.3 25.3 417.2 24C445 22.7 473 19.3 500.8 19.3C528.7 19.3 556.3 22.7 584.2 23.8C612 25 640 24 667.8 22.5C695.7 21 723.3 19 751.2 18.8C779 18.7 807 20.3 834.8 21C862.7 21.7 890.3 21.3 918.2 21.7C946 22 974 23 1001.8 22.3C1029.7 21.7 1057.3 19.3 1085.2 18C1113 16.7 1141 16.3 1168.8 17.3C1196.7 18.3 1224.3 20.7 1252.2 20.8C1280 21 1308 19 1335.8 19.7C1363.7 20.3 1391.3 23.7 1419.2 23.3C1447 23 1475 19 1502.8 18.7C1530.7 18.3 1558.3 21.7 1586.2 23.5C1614 25.3 1642 25.7 1669.8 24.3C1697.7 23 1725.3 20 1753.2 18.8C1781 17.7 1809 18.3 1836.8 19.7C1864.7 21 1892.3 23 1906.2 24L1920 25L1920 0L1906.2 0C1892.3 0 1864.7 0 1836.8 0C1809 0 1781 0 1753.2 0C1725.3 0 1697.7 0 1669.8 0C1642 0 1614 0 1586.2 0C1558.3 0 1530.7 0 1502.8 0C1475 0 1447 0 1419.2 0C1391.3 0 1363.7 0 1335.8 0C1308 0 1280 0 1252.2 0C1224.3 0 1196.7 0 1168.8 0C1141 0 1113 0 1085.2 0C1057.3 0 1029.7 0 1001.8 0C974 0 946 0 918.2 0C890.3 0 862.7 0 834.8 0C807 0 779 0 751.2 0C723.3 0 695.7 0 667.8 0C640 0 612 0 584.2 0C556.3 0 528.7 0 500.8 0C473 0 445 0 417.2 0C389.3 0 361.7 0 333.8 0C306 0 278 0 250.2 0C222.3 0 194.7 0 166.8 0C139 0 111 0 83.2 0C55.3 0 27.7 0 13.8 0L0 0Z" fill="#6f2232"></path></svg>