<svg id="visual" viewBox="0 0 1920 1080" preserveAspectRatio="none" width="1920" height="1080" xmlns="http://www.w3.org/2000/svg" xmlns:xlink="http://www.w3.org/1999/xlink" version="1.1"><rect x="0" y="0" width="1920" height="1080" fill="#1a1a1d"></rect><path d="M0 966L26.7 961C53.3 956 106.7 946 160 936.3C213.3 926.7 266.7 917.3 320 912.5C373.3 907.7 426.7 907.3 480 912.2C533.3 917 586.7 927 640 940.2C693.3 953.3 746.7 969.7 800 976C853.3 982.3 906.7 978.7 960 964.3C1013.3 950 1066.7 925 1120 923.5C1173.3 922 1226.7 944 1280 956.2C1333.3 968.3 1386.7 970.7 1440 965.7C1493.3 960.7 1546.7 948.3 1600 947.7C1653.3 947 1706.7 958 1760 966.5C1813.3 975 1866.7 981 1893.3 984L1920 987L1920 1081L1893.3 1081C1866.7 1081 1813.3 1081 1760 1081C1706.7 1081 1653.3 1081 1600 1081C1546.7 1081 1493.3 1081 1440 1081C1386.7 1081 1333.3 1081 1280 1081C1226.7 1081 1173.3 1081 1120 1081C1066.7 1081 1013.3 1081 960 1081C906.7 1081 853.3 1081 800 1081C746.7 1081 693.3 1081 640 1081C586.7 1081 533.3 1081 480 1081C426.7 1081 373.3 1081 320 1081C266.7 1081 213.3 1081 160 1081C106.7 1081 53.3 1081 26.7 1081L0 1081Z" fill="#6f2232"></path><path d="M0 997L26.7 998.7C53.3 1000.3 106.7 1003.7 160 1005.3C213.3 1007 266.7 1007 320 997.3C373.3 987.7 426.7 968.3 480 960.7C533.3 953 586.7 957 640 956C693.3 955 746.7 949 800 956.8C853.3 964.7 906.7 986.3 960 992.5C1013.3 998.7 1066.7 989.3 1120 989C1173.3 988.7 1226.7 997.3 1280 997.5C1333.3 997.7 1386.7 989.3 1440 977.8C1493.3 966.3 1546.7 951.7 1600 955.7C1653.3 959.7 1706.7 982.3 1760 990.8C1813.3 999.3 1866.7 993.7 1893.3 990.8L1920 988L1920 1081L1893.3 1081C1866.7 1081 1813.3 1081 1760 1081C1706.7 1081 1653.3 1081 1600 1081C1546.7 1081 1493.3 1081 1440 1081C1386.7 1081 1333.3 1081 1280 1081C1226.7 1081 1173.3 1081 1120 1081C1066.7 1081 1013.3 1081 960 1081C906.7 1081 853.3 1081 800 1081C746.7 1081 693.3 1081 640 1081C586.7 1081 533.3 1081 480 1081C426.7 1081 373.3 1081 320 1081C266.7 1081 213.3 1081 160 1081C106.7 1081 53.3 1081 26.7 1081L0 1081Z" fill="#832036"></path><path d="M0 1023L26.7 1013.7C53.3 1004.3 106.7 985.7 160 979.2C213.3 972.7 266.7 978.3 320 986.3C373.3 994.3 426.7 1004.7 480 1009.8C533.3 1015 586.7 1015 640 1006.2C693.3 997.3 746.7 979.7 800 973.2C853.3 966.7 906.7 971.3 960 978.3C1013.3 985.3 1066.7 994.7 1120 999.8C1173.3 1005 1226.7 1006 1280 1007.3C1333.3 1008.7 1386.7 1010.3 1440 1010C1493.3 1009.7 1546.7 1007.3 1600 1008.2C1653.3 1009 1706.7 1013 1760 1008C1813.3 1003 1866.7 989 1893.3 982L1920 975L1920 1081L1893.3 1081C1866.7 1081 1813.3 1081 1760 1081C1706.7 1081 1653.3 1081 1600 1081C1546.7 1081 1493.3 1081 1440 1081C1386.7 1081 1333.3 1081 1280 1081C1226.7 1081 1173.3 1081 1120 1081C1066.7 1081 1013.3 1081 960 1081C906.7 1081 853.3 1081 800 1081C746.7 1081 693.3 1081 640 1081C586.7 1081 533.3 1081 480 1081C426.7 1081 373.3 1081 320 1081C266.7 1081 213.3 1081 160 1081C106.7 1081 53.3 1081 26.7 1081L0 1081Z" fill="#981c3a"></path><path d="M0 1029L26.7 1028.3C53.3 1027.7 106.7 1026.3 160 1029C213.3 1031.7 266.7 1038.3 320 1037.5C373.3 1036.7 426.7 1028.3 480 1021.3C533.3 1014.3 586.7 1008.7 640 1012.3C693.3 1016 746.7 1029 800 1030.5C853.3 1032 906.7 1022 960 1017.3C1013.3 1012.7 1066.7 1013.3 1120 1012.2C1173.3 1011 1226.7 1008 1280 1011.8C1333.3 1015.7 1386.7 1026.3 1440 1029C1493.3 1031.7 1546.7 1026.3 1600 1020.2C1653.3 1014 1706.7 1007 1760 1011C1813.3 1015 1866.7 1030 1893.3 1037.5L1920 1045L1920 1081L1893.3 1081C1866.7 1081 1813.3 1081 1760 1081C1706.7 1081 1653.3 1081 1600 1081C1546.7 1081 1493.3 1081 1440 1081C1386.7 1081 1333.3 1081 1280 1081C1226.7 1081 1173.3 1081 1120 1081C1066.7 1081 1013.3 1081 960 1081C906.7 1081 853.3 1081 800 1081C746.7 1081 693.3 1081 640 1081C586.7 1081 533.3 1081 480 1081C426.7 1081 373.3 1081 320 1081C266.7 1081 213.3 1081 160 1081C106.7 1081 53.3 1081 26.7 1081L0 1081Z" fill="#ad153d"></path><path d="M0 1025L26.7 1029.8C53.3 1034.7 106.7 1044.3 160 1050.3C213.3 1056.3 266.7 1058.7 320 1053.7C373.3 1048.7 426.7 1036.3 480 1030.7C533.3 1025 586.7 1026 640 1031.5C693.3 1037 746.7 1047 800 1047C853.3 1047 906.7 1037 960 1038C1013.3 1039 1066.7 1051 1120 1054.3C1173.3 1057.7 1226.7 1052.3 1280 1051.2C1333.3 1050 1386.7 1053 1440 1052.2C1493.3 1051.3 1546.7 1046.7 1600 1046.8C1653.3 1047 1706.7 1052 1760 1055.2C1813.3 1058.3 1866.7 1059.7 1893.3 1060.3L1920 1061L1920 1081L1893.3 1081C1866.7 1081 1813.3 1081 1760 1081C1706.7 1081 1653.3 1081 1600 1081C1546.7 1081 1493.3 1081 1440 1081C1386.7 1081 1333.3 1081 1280 1081C1226.7 1081 1173.3 1081 1120 1081C1066.7 1081 1013.3 1081 960 1081C906.7 1081 853.3 1081 800 1081C746.7 1081 693.3 1081 640 1081C586.7 1081 533.3 1081 480 1081C426.7 1081 373.3 1081 320 1081C266.7 1081 213.3 1081 160 1081C106.7 1081 53.3 1081 26.7 1081L0 1081Z" fill="#c3073f"></path></svg>