<svg id="visual" viewBox="0 0 1000 1080" width="1000" height="1080" xmlns="http://www.w3.org/2000/svg" xmlns:xlink="http://www.w3.org/1999/xlink" version="1.1"><rect x="0" y="0" width="1000" height="1080" fill="#1a1a1d"></rect><defs><linearGradient id="grad1_0" x1="0%" y1="100%" x2="100%" y2="0%"><stop offset="30%" stop-color="#1a1a1d" stop-opacity="1"></stop><stop offset="70%" stop-color="#1a1a1d" stop-opacity="1"></stop></linearGradient></defs><defs><linearGradient id="grad2_0" x1="0%" y1="100%" x2="100%" y2="0%"><stop offset="30%" stop-color="#1a1a1d" stop-opacity="1"></stop><stop offset="70%" stop-color="#1a1a1d" stop-opacity="1"></stop></linearGradient></defs><g transform="translate(1000, 1080)"><path d="M-515.2 0C-498.7 -53.6 -482.2 -107.2 -453.7 -147.4C-425.1 -187.6 -384.5 -214.5 -362.4 -263.3C-340.4 -312.1 -336.8 -382.8 -302.8 -416.8C-268.8 -450.8 -204.5 -448.1 -148.9 -458.4C-93.4 -468.7 -46.7 -491.9 0 -515.2L0 0Z" fill="#c3073f"></path></g><g transform="translate(0, 0)"><path d="M515.2 0C497.3 48.9 479.4 97.9 467.9 152C456.4 206.2 451.4 265.5 416.8 302.8C382.2 340.1 318 355.3 266.3 366.5C214.5 377.7 175.2 384.8 132.9 409C90.6 433.1 45.3 474.1 0 515.2L0 0Z" fill="#c3073f"></path></g></svg>