<svg id="visual" viewBox="0 0 1920 1080" width="1920" height="1080" xmlns="http://www.w3.org/2000/svg" xmlns:xlink="http://www.w3.org/1999/xlink" version="1.1"><rect x="0" y="0" width="1920" height="1080" fill="#1a1a1d"></rect><path d="M0 132L35.5 132C71 132 142 132 213.2 136.7C284.3 141.3 355.7 150.7 426.8 147.3C498 144 569 128 640 127.3C711 126.7 782 141.3 853.2 143.8C924.3 146.3 995.7 136.7 1066.8 129.5C1138 122.3 1209 117.7 1280 125C1351 132.3 1422 151.7 1493.2 162.2C1564.3 172.7 1635.7 174.3 1706.8 173.5C1778 172.7 1849 169.3 1884.5 167.7L1920 166L1920 0L1884.5 0C1849 0 1778 0 1706.8 0C1635.7 0 1564.3 0 1493.2 0C1422 0 1351 0 1280 0C1209 0 1138 0 1066.8 0C995.7 0 924.3 0 853.2 0C782 0 711 0 640 0C569 0 498 0 426.8 0C355.7 0 284.3 0 213.2 0C142 0 71 0 35.5 0L0 0Z" fill="#c3073f"></path><path d="M0 105L35.5 108.3C71 111.7 142 118.3 213.2 117.3C284.3 116.3 355.7 107.7 426.8 108.8C498 110 569 121 640 121.5C711 122 782 112 853.2 104.7C924.3 97.3 995.7 92.7 1066.8 91.7C1138 90.7 1209 93.3 1280 95C1351 96.7 1422 97.3 1493.2 104.3C1564.3 111.3 1635.7 124.7 1706.8 124.3C1778 124 1849 110 1884.5 103L1920 96L1920 0L1884.5 0C1849 0 1778 0 1706.8 0C1635.7 0 1564.3 0 1493.2 0C1422 0 1351 0 1280 0C1209 0 1138 0 1066.8 0C995.7 0 924.3 0 853.2 0C782 0 711 0 640 0C569 0 498 0 426.8 0C355.7 0 284.3 0 213.2 0C142 0 71 0 35.5 0L0 0Z" fill="#a6183c"></path><path d="M0 96L35.5 91.3C71 86.7 142 77.3 213.2 75.5C284.3 73.7 355.7 79.3 426.8 82.5C498 85.7 569 86.3 640 87.5C711 88.7 782 90.3 853.2 87.3C924.3 84.3 995.7 76.7 1066.8 75.7C1138 74.7 1209 80.3 1280 85.5C1351 90.7 1422 95.3 1493.2 94.3C1564.3 93.3 1635.7 86.7 1706.8 84.2C1778 81.7 1849 83.3 1884.5 84.2L1920 85L1920 0L1884.5 0C1849 0 1778 0 1706.8 0C1635.7 0 1564.3 0 1493.2 0C1422 0 1351 0 1280 0C1209 0 1138 0 1066.8 0C995.7 0 924.3 0 853.2 0C782 0 711 0 640 0C569 0 498 0 426.8 0C355.7 0 284.3 0 213.2 0C142 0 71 0 35.5 0L0 0Z" fill="#8a1f38"></path><path d="M0 49L35.5 49.2C71 49.3 142 49.7 213.2 46C284.3 42.3 355.7 34.7 426.8 34C498 33.3 569 39.7 640 39.7C711 39.7 782 33.3 853.2 34C924.3 34.7 995.7 42.3 1066.8 43C1138 43.7 1209 37.3 1280 34.3C1351 31.3 1422 31.7 1493.2 33.7C1564.3 35.7 1635.7 39.3 1706.8 40C1778 40.7 1849 38.3 1884.5 37.2L1920 36L1920 0L1884.5 0C1849 0 1778 0 1706.8 0C1635.7 0 1564.3 0 1493.2 0C1422 0 1351 0 1280 0C1209 0 1138 0 1066.8 0C995.7 0 924.3 0 853.2 0C782 0 711 0 640 0C569 0 498 0 426.8 0C355.7 0 284.3 0 213.2 0C142 0 71 0 35.5 0L0 0Z" fill="#6f2232"></path></svg>