<svg id="visual" viewBox="0 0 1920 1080" width="1920" height="1080" xmlns="http://www.w3.org/2000/svg" xmlns:xlink="http://www.w3.org/1999/xlink" version="1.1"><rect x="0" y="0" width="1920" height="1080" fill="#1a1a1d"></rect><path d="M0 879L35.5 879.2C71 879.3 142 879.7 213.2 872.7C284.3 865.7 355.7 851.3 426.8 856.2C498 861 569 885 640 886.2C711 887.3 782 865.7 853.2 862C924.3 858.3 995.7 872.7 1066.8 883.3C1138 894 1209 901 1280 890C1351 879 1422 850 1493.2 834.3C1564.3 818.7 1635.7 816.3 1706.8 817.5C1778 818.7 1849 823.3 1884.5 825.7L1920 828L1920 1081L1884.5 1081C1849 1081 1778 1081 1706.8 1081C1635.7 1081 1564.3 1081 1493.2 1081C1422 1081 1351 1081 1280 1081C1209 1081 1138 1081 1066.8 1081C995.7 1081 924.3 1081 853.2 1081C782 1081 711 1081 640 1081C569 1081 498 1081 426.8 1081C355.7 1081 284.3 1081 213.2 1081C142 1081 71 1081 35.5 1081L0 1081Z" fill="#c3073f"></path><path d="M0 920L35.5 914.8C71 909.7 142 899.3 213.2 900.8C284.3 902.3 355.7 915.7 426.8 914.2C498 912.7 569 896.3 640 895.5C711 894.7 782 909.3 853.2 920.3C924.3 931.3 995.7 938.7 1066.8 940.3C1138 942 1209 938 1280 935.3C1351 932.7 1422 931.3 1493.2 920.8C1564.3 910.3 1635.7 890.7 1706.8 891.3C1778 892 1849 913 1884.5 923.5L1920 934L1920 1081L1884.5 1081C1849 1081 1778 1081 1706.8 1081C1635.7 1081 1564.3 1081 1493.2 1081C1422 1081 1351 1081 1280 1081C1209 1081 1138 1081 1066.8 1081C995.7 1081 924.3 1081 853.2 1081C782 1081 711 1081 640 1081C569 1081 498 1081 426.8 1081C355.7 1081 284.3 1081 213.2 1081C142 1081 71 1081 35.5 1081L0 1081Z" fill="#a6183c"></path><path d="M0 934L35.5 941C71 948 142 962 213.2 964.5C284.3 967 355.7 958 426.8 953C498 948 569 947 640 945.3C711 943.7 782 941.3 853.2 946C924.3 950.7 995.7 962.3 1066.8 963.8C1138 965.3 1209 956.7 1280 949C1351 941.3 1422 934.7 1493.2 936.2C1564.3 937.7 1635.7 947.3 1706.8 950.8C1778 954.3 1849 951.7 1884.5 950.3L1920 949L1920 1081L1884.5 1081C1849 1081 1778 1081 1706.8 1081C1635.7 1081 1564.3 1081 1493.2 1081C1422 1081 1351 1081 1280 1081C1209 1081 1138 1081 1066.8 1081C995.7 1081 924.3 1081 853.2 1081C782 1081 711 1081 640 1081C569 1081 498 1081 426.8 1081C355.7 1081 284.3 1081 213.2 1081C142 1081 71 1081 35.5 1081L0 1081Z" fill="#8a1f38"></path><path d="M0 1005L35.5 1004.5C71 1004 142 1003 213.2 1008.3C284.3 1013.7 355.7 1025.3 426.8 1026.5C498 1027.7 569 1018.3 640 1018.2C711 1018 782 1027 853.2 1025.8C924.3 1024.7 995.7 1013.3 1066.8 1012.5C1138 1011.7 1209 1021.3 1280 1026C1351 1030.7 1422 1030.3 1493.2 1027.5C1564.3 1024.7 1635.7 1019.3 1706.8 1018.2C1778 1017 1849 1020 1884.5 1021.5L1920 1023L1920 1081L1884.5 1081C1849 1081 1778 1081 1706.8 1081C1635.7 1081 1564.3 1081 1493.2 1081C1422 1081 1351 1081 1280 1081C1209 1081 1138 1081 1066.8 1081C995.7 1081 924.3 1081 853.2 1081C782 1081 711 1081 640 1081C569 1081 498 1081 426.8 1081C355.7 1081 284.3 1081 213.2 1081C142 1081 71 1081 35.5 1081L0 1081Z" fill="#6f2232"></path></svg>