<svg id="visual" viewBox="0 0 1920 1080" preserveAspectRatio='none' width="1920" height="1080" xmlns="http://www.w3.org/2000/svg" xmlns:xlink="http://www.w3.org/1999/xlink" version="1.1"><rect x="0" y="0" width="1920" height="1080" fill="#1a1a1d"></rect><path d="M0 921L32 919C64 917 128 913 192 912.7C256 912.3 320 915.7 384 913.5C448 911.3 512 903.7 576 912.8C640 922 704 948 768 954.2C832 960.3 896 946.7 960 944.2C1024 941.7 1088 950.3 1152 956C1216 961.7 1280 964.3 1344 958.5C1408 952.7 1472 938.3 1536 926.8C1600 915.3 1664 906.7 1728 912.8C1792 919 1856 940 1888 950.5L1920 961L1920 1081L1888 1081C1856 1081 1792 1081 1728 1081C1664 1081 1600 1081 1536 1081C1472 1081 1408 1081 1344 1081C1280 1081 1216 1081 1152 1081C1088 1081 1024 1081 960 1081C896 1081 832 1081 768 1081C704 1081 640 1081 576 1081C512 1081 448 1081 384 1081C320 1081 256 1081 192 1081C128 1081 64 1081 32 1081L0 1081Z" fill="#c3073f"></path><path d="M0 967L32 973.3C64 979.7 128 992.3 192 994.7C256 997 320 989 384 986.5C448 984 512 987 576 979C640 971 704 952 768 950.3C832 948.7 896 964.3 960 975.5C1024 986.7 1088 993.3 1152 995.2C1216 997 1280 994 1344 989.5C1408 985 1472 979 1536 975.2C1600 971.3 1664 969.7 1728 974.3C1792 979 1856 990 1888 995.5L1920 1001L1920 1081L1888 1081C1856 1081 1792 1081 1728 1081C1664 1081 1600 1081 1536 1081C1472 1081 1408 1081 1344 1081C1280 1081 1216 1081 1152 1081C1088 1081 1024 1081 960 1081C896 1081 832 1081 768 1081C704 1081 640 1081 576 1081C512 1081 448 1081 384 1081C320 1081 256 1081 192 1081C128 1081 64 1081 32 1081L0 1081Z" fill="#b40441"></path><path d="M0 984L32 991.2C64 998.3 128 1012.7 192 1010.8C256 1009 320 991 384 985C448 979 512 985 576 993.8C640 1002.7 704 1014.3 768 1017.7C832 1021 896 1016 960 1008.2C1024 1000.3 1088 989.7 1152 983.5C1216 977.3 1280 975.7 1344 982C1408 988.3 1472 1002.7 1536 1013C1600 1023.3 1664 1029.7 1728 1025.3C1792 1021 1856 1006 1888 998.5L1920 991L1920 1081L1888 1081C1856 1081 1792 1081 1728 1081C1664 1081 1600 1081 1536 1081C1472 1081 1408 1081 1344 1081C1280 1081 1216 1081 1152 1081C1088 1081 1024 1081 960 1081C896 1081 832 1081 768 1081C704 1081 640 1081 576 1081C512 1081 448 1081 384 1081C320 1081 256 1081 192 1081C128 1081 64 1081 32 1081L0 1081Z" fill="#a40541"></path><path d="M0 1062L32 1058.7C64 1055.3 128 1048.7 192 1046.3C256 1044 320 1046 384 1043.8C448 1041.7 512 1035.3 576 1034.7C640 1034 704 1039 768 1043.8C832 1048.7 896 1053.3 960 1051.7C1024 1050 1088 1042 1152 1041.2C1216 1040.3 1280 1046.7 1344 1047.2C1408 1047.7 1472 1042.3 1536 1039C1600 1035.7 1664 1034.3 1728 1036.5C1792 1038.7 1856 1044.3 1888 1047.2L1920 1050L1920 1081L1888 1081C1856 1081 1792 1081 1728 1081C1664 1081 1600 1081 1536 1081C1472 1081 1408 1081 1344 1081C1280 1081 1216 1081 1152 1081C1088 1081 1024 1081 960 1081C896 1081 832 1081 768 1081C704 1081 640 1081 576 1081C512 1081 448 1081 384 1081C320 1081 256 1081 192 1081C128 1081 64 1081 32 1081L0 1081Z" fill="#950740"></path></svg>