<svg id="visual" viewBox="0 0 1920 1080" width="1920" height="1080" xmlns="http://www.w3.org/2000/svg" xmlns:xlink="http://www.w3.org/1999/xlink" version="1.1"><rect x="0" y="0" width="1920" height="1080" fill="#1a1a1d"></rect><path d="M0 946L35.5 946C71 946 142 946 213.2 941.3C284.3 936.7 355.7 927.3 426.8 930.7C498 934 569 950 640 950.7C711 951.3 782 936.7 853.2 934.2C924.3 931.7 995.7 941.3 1066.8 948.5C1138 955.7 1209 960.3 1280 953C1351 945.7 1422 926.3 1493.2 915.8C1564.3 905.3 1635.7 903.7 1706.8 904.5C1778 905.3 1849 908.7 1884.5 910.3L1920 912L1920 1081L1884.5 1081C1849 1081 1778 1081 1706.8 1081C1635.7 1081 1564.3 1081 1493.2 1081C1422 1081 1351 1081 1280 1081C1209 1081 1138 1081 1066.8 1081C995.7 1081 924.3 1081 853.2 1081C782 1081 711 1081 640 1081C569 1081 498 1081 426.8 1081C355.7 1081 284.3 1081 213.2 1081C142 1081 71 1081 35.5 1081L0 1081Z" fill="#c3073f"></path><path d="M0 973L35.5 969.7C71 966.3 142 959.7 213.2 960.7C284.3 961.7 355.7 970.3 426.8 969.2C498 968 569 957 640 956.5C711 956 782 966 853.2 973.3C924.3 980.7 995.7 985.3 1066.8 986.3C1138 987.3 1209 984.7 1280 983C1351 981.3 1422 980.7 1493.2 973.7C1564.3 966.7 1635.7 953.3 1706.8 953.7C1778 954 1849 968 1884.5 975L1920 982L1920 1081L1884.5 1081C1849 1081 1778 1081 1706.8 1081C1635.7 1081 1564.3 1081 1493.2 1081C1422 1081 1351 1081 1280 1081C1209 1081 1138 1081 1066.8 1081C995.7 1081 924.3 1081 853.2 1081C782 1081 711 1081 640 1081C569 1081 498 1081 426.8 1081C355.7 1081 284.3 1081 213.2 1081C142 1081 71 1081 35.5 1081L0 1081Z" fill="#a6183c"></path><path d="M0 982L35.5 986.7C71 991.3 142 1000.7 213.2 1002.5C284.3 1004.3 355.7 998.7 426.8 995.5C498 992.3 569 991.7 640 990.5C711 989.3 782 987.7 853.2 990.7C924.3 993.7 995.7 1001.3 1066.8 1002.3C1138 1003.3 1209 997.7 1280 992.5C1351 987.3 1422 982.7 1493.2 983.7C1564.3 984.7 1635.7 991.3 1706.8 993.8C1778 996.3 1849 994.7 1884.5 993.8L1920 993L1920 1081L1884.5 1081C1849 1081 1778 1081 1706.8 1081C1635.7 1081 1564.3 1081 1493.2 1081C1422 1081 1351 1081 1280 1081C1209 1081 1138 1081 1066.8 1081C995.7 1081 924.3 1081 853.2 1081C782 1081 711 1081 640 1081C569 1081 498 1081 426.8 1081C355.7 1081 284.3 1081 213.2 1081C142 1081 71 1081 35.5 1081L0 1081Z" fill="#8a1f38"></path><path d="M0 1029L35.5 1028.8C71 1028.7 142 1028.3 213.2 1032C284.3 1035.7 355.7 1043.3 426.8 1044C498 1044.7 569 1038.3 640 1038.3C711 1038.3 782 1044.7 853.2 1044C924.3 1043.3 995.7 1035.7 1066.8 1035C1138 1034.3 1209 1040.7 1280 1043.7C1351 1046.7 1422 1046.3 1493.2 1044.3C1564.3 1042.3 1635.7 1038.7 1706.8 1038C1778 1037.3 1849 1039.7 1884.5 1040.8L1920 1042L1920 1081L1884.5 1081C1849 1081 1778 1081 1706.8 1081C1635.7 1081 1564.3 1081 1493.2 1081C1422 1081 1351 1081 1280 1081C1209 1081 1138 1081 1066.8 1081C995.7 1081 924.3 1081 853.2 1081C782 1081 711 1081 640 1081C569 1081 498 1081 426.8 1081C355.7 1081 284.3 1081 213.2 1081C142 1081 71 1081 35.5 1081L0 1081Z" fill="#6f2232"></path></svg>